<mxfile host="app.diagrams.net" modified="2023-12-03T11:20:28.019Z" agent="Mozilla/5.0 (Windows NT 10.0; Win64; x64) AppleWebKit/537.36 (KHTML, like Gecko) Chrome/119.0.0.0 Safari/537.36 Edg/119.0.0.0" version="22.1.5" etag="KB9AJzxehUbRJ6ogDhSn" type="github">
  <diagram name="Page-1" id="Lp4SEj0FjihY1pWJekBl">
    <mxGraphModel>
      <root>
        <mxCell id="0" />
        <mxCell id="1" parent="0" />
      </root>
    </mxGraphModel>
  </diagram>
</mxfile>
